<?xml version="1.0" encoding="UTF-8"?>
<svg id="Layer_2" data-name="Layer 2" xmlns="http://www.w3.org/2000/svg" viewBox="0 0 128.96 126.86">
  <defs>
    <style>
      .cls-1 {
        fill: #f3b500;
      }

      .cls-2 {
        fill: #fff;
      }

      .cls-3 {
        stroke-width: .75px;
      }

      .cls-3, .cls-4, .cls-5 {
        fill: none;
        stroke: #623a15;
        stroke-linecap: round;
        stroke-linejoin: round;
      }

      .cls-6 {
        letter-spacing: .09em;
      }

      .cls-7 {
        letter-spacing: .08em;
      }

      .cls-4 {
        stroke-width: .5px;
      }

      .cls-8 {
        font-family: FranklinGothic-Demi, 'Franklin Gothic Demi';
        font-size: 22px;
        font-weight: 300;
      }

      .cls-8, .cls-9 {
        fill: #633807;
      }

      .cls-10 {
        fill: #623b17;
      }

      .cls-5 {
        stroke-width: 2px;
      }

      .cls-11 {
        letter-spacing: .1em;
      }
    </style>
  </defs>
  <path class="cls-5" d="M17.63,48.21c4.68-8.9,11.82-16.3,20.51-21.3"/>
  <path class="cls-5" d="M97.22,114.6c-9,7.05-20.34,11.26-32.67,11.26-18.84,0-35.38-9.83-44.78-24.63"/>
  <path class="cls-5" d="M88.89,25.77c8.95,4.63,16.41,11.74,21.47,20.42"/>
  <g>
    <path class="cls-3" d="M55.94,20.71s-4.14-1.26-6.62-.9c-1.28,.18-2.53,.02-3.65-.51l-.96-.45"/>
    <path class="cls-3" d="M61.16,26.21s1.31,4.11,1.14,6.49c-.09,1.23,.13,2.46,.64,3.57l.44,.96"/>
    <g>
      <path class="cls-4" d="M66.95,17.62s3.22-.95,3.07,0-1.04,.07-1.04,.07"/>
      <path class="cls-4" d="M65.89,16.88s1.77-2.85,.81-2.96-.34,.99-.34,.99"/>
    </g>
    <path class="cls-4" d="M58.64,21.59s9.19-8.55,2.55-9.93"/>
    <g>
      <path class="cls-2" d="M60.55,22.57l5.9,4.23,5.8,4.15c1.77,1.01,2.93,2.53,2.73,3.79-.25,1.6-2.57,2.18-5.19,1.31-2.19-.73-3.88-2.26-4.23-3.68l-2.46-4.81-2.55-4.98Z"/>
      <path class="cls-10" d="M60.55,22.57c3.95,2.62,8.08,5.25,11.96,8.01,1.64,.72,4.43,3.86,2.06,5.67-2.69,1.62-6.2,.18-8.25-1.82-.45-.4-1.13-1.56-1.12-1.89-1.39-2.82-3.41-7.26-4.66-9.98h0Zm0,0c1.64,2.95,3.83,6.67,5.37,9.61,.91,2.7,5.52,4.75,8.06,3.27,1.53-1.4-.63-3.32-1.99-4.14-3.92-2.82-7.58-5.79-11.44-8.75h0Z"/>
    </g>
    <g>
      <path class="cls-2" d="M59.12,22.95l-3.82-5.1-3.75-5.01c-.93-1.54-2.26-2.51-3.33-2.31-1.36,.26-1.77,2.33-.93,4.61,.71,1.91,2.07,3.37,3.29,3.64l4.2,2.05,4.34,2.12Z"/>
      <path class="cls-10" d="M59.12,22.95c-2.68-3.32-5.38-6.44-7.94-9.83-.7-1.11-2.42-3.02-3.5-1.63-1.09,2.29,.71,6.15,3.07,6.94,2.59,1.29,5.76,3.12,8.37,4.52h0Zm0,0c-2.33-1-6.28-2.66-8.71-3.81,0,0,.09,.03,.09,.03-.71-.15-1.29-.54-1.77-.99-1.8-1.79-3.12-4.77-1.88-7.23,1.52-2.29,4.4,.19,5.07,1.62,2.49,3.36,4.86,6.95,7.21,10.38h0Z"/>
    </g>
    <g>
      <path class="cls-2" d="M59.07,23.11l.7-8.56,.69-8.4c.6-2.37-.3-4.57-2.43-5.37-2.7-1.01-6.35,.62-8.15,3.64-1.51,2.53-1.24,5.23,.47,6.63l4.28,5.92"/>
      <path class="cls-10" d="M59.07,23.11c.19-5.67,.52-11.34,.95-17,1.12-4.41-3.18-6.37-6.75-4.32-2.36,1.29-4.27,3.94-3.96,6.71,.12,.92,.57,1.77,1.28,2.39,1.38,2.01,2.73,4.04,4.06,6.09-1.53-1.9-3.03-3.82-4.51-5.76-.58-.37-1.39-1.65-1.51-2.6-.53-3.13,1.56-6.14,4.19-7.64,4.38-2.59,9.38,.23,8.09,5.21-.5,5.65-1.1,11.29-1.84,16.92h0Z"/>
    </g>
    <g>
      <path class="cls-2" d="M61.23,23.42l8.61-.19,8.46-.19c2.4-.48,4.58,.61,5.32,2.89,.93,2.9-.82,6.64-3.91,8.34-2.59,1.43-5.29,.97-6.64-.91l-5.82-4.88"/>
      <path class="cls-10" d="M61.23,23.42c4.1-.31,8.67-.5,12.8-.68,1.3-.07,3.18-.11,4.19-.13,1.05-.21,2.18-.17,3.2,.25,3.32,1.32,3.58,5.7,1.9,8.41-1.52,2.7-4.71,4.84-7.9,4.05-.97-.2-2.2-1.12-2.54-1.74-1.9-1.67-3.78-3.38-5.64-5.1,2.02,1.53,4.02,3.09,6,4.67,.58,.76,1.41,1.3,2.34,1.49,3.78,.67,7.39-2.83,7.76-6.47,.18-1.79-.56-3.74-2.29-4.45-.82-.35-1.77-.41-2.68-.24-1.44,.03-2.89,.06-4.33,.05-4.14,0-8.7,0-12.81-.11h0Z"/>
    </g>
    <path class="cls-2" d="M50.79,26.11c-.16,.16-.27,.33-.37,.51l5.42,5.42c.33-.16,.63-.38,.91-.65l1.14-.85-5.9-5.9-1.18,1.48Z"/>
    <path class="cls-3" d="M59.12,28.91s-.52,4.28-1.66,6.38c-.59,1.08-.9,2.29-.9,3.52v1.06"/>
    <path class="cls-3" d="M53.48,23.45s-4.31,.34-6.5,1.57c-1.13,.64-2.36,.94-3.58,.85l-1.06-.07"/>
    <path class="cls-9" d="M55.84,32.05c-.33,.16-.67,.27-1.01,.33-.44,.37-.98,.65-1.58,.76-.22,.04-.44,.07-.68,.07-.14,0-.27-.03-.41-.04l-.59,.17-1.11,.32-2.46,.71,.62-2.48,.2-.82,.24-.96c-.02-.14-.04-.28-.04-.43,0-.12,0-.25,.02-.37,.1-.91,.55-1.72,1.21-2.29,.04-.13,.11-.26,.18-.37l5.42,5.42Z"/>
    <path class="cls-9" d="M67.22,19.43s-.06,.08-.1,.1c-.32,.34-.79,.46-1.31,.42-.18,0-.36-.04-.55-.1,.1,.3,.16,.61,.16,.95,0,1.71-1.39,3.1-3.1,3.1-.33,0-.63-.06-.92-.16,.31,.53,.5,1.09,.5,1.77,0,.6-.14,1.18-.41,1.71-.3,.64-.77,1.21-1.36,1.64l-.05,.04-2.2,1.63-5.91-5.91,.97-1.2c.41-.51,.89-.94,1.42-1.29,.62-.41,1.3-.69,2.02-.83,.36-.06,.73-.1,1.1-.09,.77,.02,1.37,.2,1.89,.5-.09-.29-.15-.6-.15-.92,0-1.71,1.39-3.1,3.1-3.1,.26,0,.51,.04,.74,.1-.09-.27-.12-.53-.1-.78,.03-.26,.12-.5,.27-.69,.02-.03,.04-.05,.06-.06,.63-.7,1.96-.61,3.02,.22,1.1,.86,1.51,2.18,.9,2.95Z"/>
    <path class="cls-2" d="M61.49,27.22c-.3,.64-.77,1.21-1.36,1.64l-.05,.04c-1.78-1.69-4.23-4.8-5.72-6.77,.62-.41,1.3-.69,2.02-.83l5.11,5.92Z"/>
    <path class="cls-2" d="M67.13,19.52c-.32,.34-.79,.46-1.31,.42l-2.85-2.94c.03-.26,.12-.5,.27-.69,.02-.03,.39-.39,.41-.4l3.48,3.61Z"/>
    <path class="cls-2" d="M53.25,33.14c-.22,.04-.44,.07-.68,.07-.14,0-.27-.03-.41-.04l-.59,.17-2.74-2.28,.24-.96c-.02-.14-.04-.28-.04-.43,0-.12,.43-.32,.44-.44l3.79,3.92Z"/>
    <path class="cls-4" d="M64.09,21.68s8.91-2.52,9.33-.37"/>
  </g>
  <g>
    <path class="cls-1" d="M31.74,78.33c.04-2.9,.06-5.81,.06-8.71,0-5.26,.06-10.51-.51-15.75-.14-1.31-1.47-2.23-2.85-2.55-1.17-.27-2.82-.12-3,1.17-.71,5.29-.69,10.61-.78,15.94-.06,3.41-.12,6.84-.12,10.25-.8,.07-1.6,.15-2.4,.25-2.77,.33-5.6,.81-8.31,1.58-.04-3.21-.23-6.42-.53-9.63-.08-.85-.16-1.71-.26-2.56l-.15-1.33c-.17-1.34-.37-2.68-.61-4.02-.45-2.43-1.12-5.25-2.89-7.22-1.41-1.58-3.08-3.25-5.46-3.58-1.52-.22-2.87,.31-3.64,1.34,.39,.1,.79,.26,1.09,.34,.29,.08,.57,.17,.85,.26,.51-.56,1.26-.9,2.16-.59,1.11,.38,1.33,1.41,1.47,2.36,.14,.96,.49,1.88,.65,2.84,.3,1.75,.48,3.52,.61,5.29l.11,1.58c.1,1.7,.17,3.41,.26,5.1,.22,4.08,.33,8.17,.18,12.25-.19,.1-.38,.21-.57,.31C3.06,85.57,.16,89.23,0,93.57c-.15,4,2.82,7.47,7.62,6.54,2.92-.56,4.05-2.57,4.76-4.97,.76-2.59,1.08-5.33,1.27-8,.12-1.81,.18-3.61,.18-5.42,3.41-1.08,7.03-1.67,10.71-1.99,0,1.52,.02,3.03,.06,4.55,.12,4.65,.07,9.89,3.4,13.79,1.61,1.88,4.23,3.52,7.03,3.28,2.13-.18,3.53-1.7,4.7-3.15,3.33-4.14,5.63-8.83,6.22-13.92,.08-.68-1.68-1.22-1.78-.42-.48,4.04-2.05,7.83-4.64,11.17-1.05,1.35-2.94,3.63-5.1,3.3-1.32-.2-1.9-1.82-2.24-2.8-1.34-3.92-.58-8.26-.52-12.28,.02-1.28,.04-2.57,.06-3.85m-24.58,10.58c-.2,1.91-.18,4.13-.87,5.95-.25,.65-.57,1.64-1.09,2.15-.87,.85-2.02-.14-2.53-.8-1.15-1.48-1.31-3.52-.92-5.24,.71-3.15,2.97-5.71,5.86-7.53-.1,1.83-.26,3.65-.45,5.47Z"/>
    <path class="cls-1" d="M56.25,90.6c.38-1.35,.86-3.79,.31-6.73-.42-2.26-1.08-4.9-3.49-6.68-2.24-1.65-5.42-1.51-7.65,.09-2.68,1.92-3.6,4.94-3.06,7.77-.33,2.31,.2,4.82,.98,6.89,.93,2.47,3.27,6.22,6.89,5.68,2.72-.41,4.71-3.55,5.42-5.26,0-.01,0-.02,.01-.03,.2-.58,.39-1.15,.59-1.73Zm-3.48,.94,.46,1.18c-.16,.37-.53,1.1-1.3,1.72-.74,.6-1.49,.81-1.88,.9-.14-.09-.25-.17-.35-.28-.28-.3-.4-.61-.47-.82-.32-.96-.6-2.05-.64-2.22-.05-.28-.12-.72-.18-1.27-.39-3.74,.75-5.31,.07-6.89-.34-.81-1.24-1.83-3.88-2.44,.2-.5,.47-.99,.8-1.45,1.27-1.81,4.29-3.73,6.56-2.01,1.7,1.29,2.4,3.73,2.76,5.6,.1,.53,.59,3.34-.44,6.65-.16,.5-.31,.91-.43,1.2-.2,.44-.41,.87-.61,1.31Z"/>
    <path class="cls-1" d="M81.08,88.52c-.44,2-1.11,3.96-2.07,5.81-.72,1.39-1.57,3.21-3.4,3.68-3.62,.94-5.98-3.7-6.46-6.1-.76-3.81-.17-7.83,.54-11.61,.17-.88,.43-1.75,.59-2.63,.07-.36,.21-.9-.07-1.22-.42-.48-1.33-.17-1.78,.1-1.59,.98-2.15,3.4-2.69,4.93-.79,2.21-1.38,4.48-1.79,6.77,0,1.37-.06,2.74-.08,4.11-.02,1.56-.48,3.04-.58,4.59-.08,1.17-2.43,.41-2.63-.4-.42-1.69-1.11-3.28-1.33-5.02-.2-1.62-.39-3.25-.44-4.88-.1-3.17-.33-6.6,.6-9.69,.26-.86,1.87-.65,2.52-.45,.98,.3,1.76,.94,1.9,1.87,.12,.8,.18,1.61,.21,2.42,.08-.22,.15-.44,.23-.65,.54-1.47,1.05-3.38,2.46-4.42,1.14-.83,2.71-.97,3.99-.32,1.33,.68,2.11,2.11,2.7,3.3,.91,1.87,1.27,3.9,1.3,5.93,.03,1.96-.04,3.92-.16,5.88-.11,1.77-.45,3.57-.48,5.34,0,.31-.06,.73,.3,.85,.51,.17,1.13-.42,1.42-.75,.62-.69,1.05-1.55,1.47-2.35,.93-1.76,1.6-3.62,2.04-5.52,.17-.76,1.84-.24,1.7,.4Z"/>
    <path class="cls-1" d="M101.58,87.97c-2.52,4.26-5.96,9.24-11.88,9.94-2.16,.26-4.38-.1-6.33-.95-2.35-1.03-3.83-2.97-4.66-5.12-1.63-4.23-.4-9.32,2.92-12.68,1.78-1.8,4.55-3.19,7.28-2.29,1.72,.57,3.37,2.22,3.44,3.88,.09,1.97-1.75,3.54-3.73,4.11-1.31,.37-2.68,.41-4.03,.27-.66,1.53-1.05,3.14-1.11,4.67-.07,1.75-.03,3.47,1.05,4.99,1.19,1.68,3.32,1.98,5.42,1.58,5.02-.96,7.83-5.36,10.06-9.04,.37-.61,1.95,.06,1.59,.66Zm-16.44-4.01c1.44,.05,2.84-.18,4-1.06,.92-.7,1.6-1.84,1.31-2.93-.06-.23-.3-.95-.65-1-.27-.03-1.01,.62-1.2,.76-1.42,1.13-2.6,2.61-3.47,4.23Z"/>
    <path class="cls-1" d="M125.88,85.63c-3,1.99-5.72,4.27-8.11,6.8,.13,3.46,.25,6.92,.29,10.39,.04,3.02,.1,6.1-.4,9.1-.46,2.81-1.31,6.09-3.37,8.34-1.93,2.12-6.04,1.94-7.52-.54-1.39-2.33-1.67-5.1-1.35-7.68,.63-5.05,2.96-10.11,5.89-14.49-.01-.37-.02-.74-.03-1.11-.07-3.58-.26-7.19-.17-10.79-.56,1.54-1.11,3.09-1.61,4.64-.56,1.74-.94,3.64-1.73,5.31-.56,1.18-1.64,2.11-3.13,2.19-4.62,.23-5.36-4.68-5.57-7.66-.14-2-.25-3.99-.22-6,.03-1.82-.16-4,.83-5.65,.79-1.31,3.22-.13,3.64,.87,.65,1.5,.63,3.21,.68,4.8,.05,1.6,.12,3.2,.15,4.81,.03,1.5,.11,3,.07,4.51-.02,.7-.05,1.38,.12,2.07,0,.01,.18,.55,.09,.57,.22,.05,.75-.34,.9-.47,1.12-.96,1.49-2.9,2-4.15,.58-1.43,1.13-2.86,1.64-4.3,.87-2.46,1.75-4.93,2.62-7.39,.06-.39,.12-.79,.19-1.18,.37-2.03,4.38-.82,4.71,.71,.76,3.56,1.03,7.08,1.18,10.68,2.04-1.94,4.29-3.73,6.7-5.31,.63-.41,2.2,.48,1.5,.94Zm-14.44,15.44c-1.8,3.21-3.17,6.66-3.76,10.16-.23,1.36-.32,2.75-.17,4.12,.08,.74,.23,1.45,.51,2.15,.1,.24,.42,1.18,.7,1.31,.04,.02-.03,0,.12-.16,.19-.2,.31-.51,.44-.75,.28-.53,.49-1.08,.68-1.63,.4-1.15,.76-2.29,.98-3.48,.72-3.88,.64-7.8,.5-11.72Z"/>
  </g>
  <text class="cls-8" transform="translate(71.63 63.71)"><tspan class="cls-7" x="0" y="0">K</tspan><tspan class="cls-11" x="15.52" y="0">e</tspan><tspan class="cls-6" x="29.48" y="0">k</tspan><tspan class="cls-11" x="43.36" y="0">o</tspan></text>
</svg>